<svg width="192" height="192" viewBox="0 0 192 192" fill="none" xmlns="http://www.w3.org/2000/svg"><path d="M35.4 147.359V32C35.3969 23.1625 42.5625 15.9969 51.4 16H145.92C154.758 15.9969 161.922 23.1625 161.92 32V160C161.922 168.837 154.758 176.003 145.92 176H51.4C42.5625 176.003 35.3969 168.837 35.4 160V147.359Z" fill="url(#paint0_linear_24_198)"/><path d="M124.32 132H72.9592C72.9592 116.6 84.4795 105.28 98.6405 105.28C112.84 105.28 124.32 116.6 124.32 132Z" fill="#F0F0F5"/><path d="M114.041 80.3999C114.041 88.9046 107.145 95.7999 98.6406 95.7999C90.1344 95.7999 83.2406 88.9046 83.2406 80.3999C83.2406 71.8953 90.1344 64.9999 98.6406 64.9999C107.145 64.9999 114.041 71.8953 114.041 80.3999Z" fill="#F0F0F5"/><path d="M48.7594 40.6406H30C27.7906 40.6406 26 42.4312 26 44.6406C26 46.8484 27.7906 48.6406 30 48.6406H48.7594C50.9688 48.6406 52.7594 46.8484 52.7594 44.6406C52.7594 42.4312 50.9688 40.6406 48.7594 40.6406Z" fill="#0E091F"/><path d="M48.7594 74.8797H30C27.7906 74.8797 26 76.6703 26 78.8797C26 81.0891 27.7906 82.8797 30 82.8797H48.7594C50.9688 82.8797 52.7594 81.0891 52.7594 78.8797C52.7594 76.6703 50.9688 74.8797 48.7594 74.8797Z" fill="#0E091F"/><path d="M48.7594 109.12H30C27.7906 109.12 26 110.911 26 113.12C26 115.33 27.7906 117.12 30 117.12H48.7594C50.9688 117.12 52.7594 115.33 52.7594 113.12C52.7594 110.911 50.9688 109.12 48.7594 109.12Z" fill="#0E091F"/><path d="M48.7594 143.359H30C27.7906 143.359 26 145.152 26 147.359C26 149.569 27.7906 151.359 30 151.359H48.7594C50.9688 151.359 52.7594 149.569 52.7594 147.359C52.7594 145.152 50.9688 143.359 48.7594 143.359Z" fill="#0E091F"/><defs><linearGradient id="paint0_linear_24_198" x1="161" y1="51" x2="36" y2="176" gradientUnits="userSpaceOnUse"><stop stop-color="#49A0CC"/><stop offset="1" stop-color="#4D2EA3"/></linearGradient></defs></svg>
